<svg xmlns="http://www.w3.org/2000/svg" viewBox="0 0 24 24" fill="none" class="tw-w-[20px] tw-h-[20px] md:tw-w-[24px] md:tw-h-[24px]" width="20" height="20" size="20"><path d="M8.30016 10C8.17125 10.007 8.0429 9.97828 7.92932 9.91692C7.81573 9.85556 7.72132 9.76399 7.65653 9.65232C7.59175 9.54065 7.5591 9.41324 7.56222 9.28417C7.56533 9.15511 7.60407 9.02941 7.67416 8.921L11.4002 3C11.4587 2.89457 11.5435 2.80605 11.6463 2.74303C11.7491 2.68 11.8665 2.64462 11.987 2.64029C12.1075 2.63596 12.2271 2.66285 12.3342 2.71834C12.4413 2.77382 12.5322 2.85603 12.5982 2.957L16.3002 8.9C16.3731 9.00479 16.416 9.12754 16.4243 9.25497C16.4325 9.38241 16.4057 9.50966 16.3468 9.62295C16.2878 9.73624 16.1991 9.83126 16.09 9.89772C15.981 9.96418 15.8559 9.99955 15.7282 10H8.30016Z" fill="#998CA6" stroke="#998CA6" stroke-linecap="round" stroke-linejoin="round"></path><path d="M9 14H4C3.44772 14 3 14.4477 3 15V20C3 20.5523 3.44772 21 4 21H9C9.55228 21 10 20.5523 10 20V15C10 14.4477 9.55228 14 9 14Z" fill="#998CA6" stroke="#998CA6" stroke-linecap="round" stroke-linejoin="round"></path><path d="M17.5 21C19.433 21 21 19.433 21 17.5C21 15.567 19.433 14 17.5 14C15.567 14 14 15.567 14 17.5C14 19.433 15.567 21 17.5 21Z" fill="#998CA6" stroke="#998CA6" stroke-linecap="round" stroke-linejoin="round"></path></svg>